<?xml version="1.0" encoding="utf-8"?>
<!-- Generator: Adobe Illustrator 24.2.3, SVG Export Plug-In . SVG Version: 6.00 Build 0)  -->
<svg version="1.1" id="Layer_1" xmlns="http://www.w3.org/2000/svg" xmlns:xlink="http://www.w3.org/1999/xlink" x="0px" y="0px"
	 viewBox="0 0 800 800" style="enable-background:new 0 0 800 800;" xml:space="preserve">
<style type="text/css">
	.st0{fill:#FFFFFF;}
</style>
<g>
	<polygon class="st0" points="346.7,477 477.7,400.2 346.7,323.3 	"/>
	<path class="st0" d="M400,0C179.1,0,0,179.1,0,400s179.1,400,400,400s400-179.1,400-400S621,0,400,0z M600,471.6L600,471.6
		c0,68.9-68.9,68.9-68.9,68.9H268.9c-68.9,0-68.9-68.9-68.9-68.9v-143c0-68.9,68.9-68.9,68.9-68.9h262.2c68.9,0,68.9,68.9,68.9,68.9
		L600,471.6L600,471.6z"/>
</g>
</svg>
